PathFileType	4	(X/Y/Z)	subject01_walk1.trc
DataRate	CameraRate	NumFrames	NumMarkers	Units	OrigDataRate	OrigDataStartFrame	OrigNumFrames
60.00	60.00	       7	41	mm	60.00	338	       900
Frame#	Time	R.ASIS			L.ASIS			V.Sacral			R.Thigh.Upper			R.Thigh.Front			R.Thigh.Rear			L.Thigh.Upper			L.Thigh.Front			L.Thigh.Rear			R.Shank.Upper			R.Shank.Front			R.Shank.Rear			L.Shank.Upper			L.Shank.Front			L.Shank.Rear			R.Heel			R.Midfoot.Sup			R.Midfoot.Lat			R.Toe.Tip			L.Heel			L.Midfoot.Sup			L.Midfoot.Lat			L.Toe.Tip			Sternum			R.Acromium			L.Acromium			R.Bicep			L.Bicep			R.Elbow			L.Elbow			R.Wrist.Med			R.Wrist.Lat			L.Wrist.Med			L.Wrist.Lat			R.Toe.Lat			R.Toe.Med			L.Toe.Lat			L.Toe.Med			R.Temple			L.Temple			Top.Head			
		X1	Y1	Z1	X2	Y2	Z2	X3	Y3	Z3	X4	Y4	Z4	X5	Y5	Z5	X6	Y6	Z6	X7	Y7	Z7	X8	Y8	Z8	X9	Y9	Z9	X10	Y10	Z10	X11	Y11	Z11	X12	Y12	Z12	X13	Y13	Z13	X14	Y14	Z14	X15	Y15	Z15	X16	Y16	Z16	X17	Y17	Z17	X18	Y18	Z18	X19	Y19	Z19	X20	Y20	Z20	X21	Y21	Z21	X22	Y22	Z22	X23	Y23	Z23	X24	Y24	Z24	X25	Y25	Z25	X26	Y26	Z26	X27	Y27	Z27	X28	Y28	Z28	X29	Y29	Z29	X30	Y30	Z30	X31	Y31	Z31	X32	Y32	Z32	X33	Y33	Z33	X34	Y34	Z34	X35	Y35	Z35	X36	Y36	Z36	X37	Y37	Z37	X38	Y38	Z38	X39	Y39	Z39	X40	Y40	Z40	X41	Y41	Z41	

338	5.617000	601.352540	1046.533690	134.582240	601.032350	1031.225340	-125.946230	403.766690	1039.360960	20.621650	657.867740	746.091430	184.092560	733.044860	710.241700	86.906190	694.609990	629.198790	172.200870	470.990840	748.204100	-177.389050	554.897400	686.454830	-124.178670	440.561220	643.615420	-162.509630	691.178100	453.940890	164.546190	773.363460	432.643950	107.569200	722.463680	371.880430	172.112750	340.132690	451.438870	-162.720260	355.650330	380.859860	-112.651120	300.253450	425.472810	-169.255620	697.073610	64.816710	98.503300	837.651920	87.882530	66.979130	830.918270	71.991810	173.213530	982.943120	82.307580	109.776930	55.451120	172.305830	-76.389430	204.481930	95.148370	-43.984950	187.105910	79.547090	-140.201450	281.955660	43.486680	-62.703460	630.889830	1346.685060	15.014730	513.358700	1430.785400	217.317540	578.832340	1459.130620	-194.253100	495.649690	1231.206180	259.892730	610.400820	1225.841800	-229.311340	438.866520	1132.880490	281.535920	573.992920	1127.691040	-278.729520	573.786990	898.519590	286.446470	527.329900	884.566530	331.347020	710.970280	924.862490	-203.292650	683.681460	905.217900	-271.467650	920.915950	58.207240	189.909360	928.567320	68.317270	80.079590	217.811310	38.801090	-141.478990	243.555920	43.413090	-40.266420	692.111630	1577.138180	98.797920	705.563900	1579.984250	-38.966940	690.320430	1753.413940	34.408270	
339	5.633000	605.988530	1049.237670	136.501800	602.559330	1031.631960	-123.119470	407.239110	1040.250850	24.194240	663.331240	748.060670	185.952610	737.448120	711.858580	88.598710	701.569700	631.552730	173.631070	480.527160	746.687130	-176.081450	565.851810	686.769780	-124.206470	453.615450	641.289730	-163.163990	692.090640	455.340820	169.616810	771.428650	431.407200	108.673520	720.489500	372.734590	176.039220	353.616360	450.945800	-165.160310	365.344240	379.513520	-114.414580	312.540770	427.567500	-170.363540	680.222530	66.627000	99.811970	821.978090	84.469180	67.578440	814.876530	68.630220	174.187270	967.316040	72.456700	110.359740	55.754390	192.705030	-76.755750	196.156300	101.802350	-44.476440	174.405490	88.505330	-140.064800	265.931640	42.101880	-62.715050	633.752810	1348.966060	19.243350	517.428530	1431.767460	222.392320	579.325440	1461.751340	-189.345730	501.439790	1232.021360	264.912110	608.269290	1228.307250	-225.915990	443.493100	1133.404300	286.445920	569.479740	1130.963500	-275.796540	577.526370	899.311340	289.706940	532.004940	885.399660	334.809910	704.096740	924.292240	-204.367110	675.636050	906.844060	-272.606600	903.526860	50.576040	189.690460	912.247920	61.377920	80.290870	202.532530	41.221440	-141.569080	229.341190	45.701900	-40.368400	694.408450	1579.619750	104.334660	707.043700	1581.892460	-34.679440	691.655640	1755.802250	39.747110	
340	5.650000	609.467710	1051.494750	139.463120	604.965030	1033.857060	-119.751920	410.161870	1041.355960	27.583710	666.432070	749.095520	190.192460	738.463130	711.407040	92.185900	701.133360	632.474980	179.107880	491.714450	744.962650	-175.128720	580.240480	687.409300	-124.819360	469.757540	637.782170	-162.815660	690.854680	456.478150	173.896410	766.680660	429.748290	111.530080	716.506710	372.577670	179.571780	370.844150	450.515660	-167.635390	379.740940	379.135160	-117.224490	328.605830	429.550320	-171.382250	662.945010	67.933810	100.916760	805.525820	82.210330	68.206760	797.870910	66.374430	175.234360	950.462220	64.836780	111.107350	61.709320	215.364960	-76.518460	190.969380	110.089480	-44.904740	166.094770	99.056800	-139.967330	251.630510	39.962180	-63.445590	636.010130	1351.841060	22.731240	519.715030	1433.339600	226.768520	579.330750	1464.952640	-185.535460	503.671390	1233.461300	269.629330	605.760190	1230.797000	-222.493480	448.808960	1134.467160	291.517490	564.653630	1135.003050	-271.387420	581.998780	900.400880	292.585660	537.000120	886.047120	338.310460	697.328060	925.379700	-206.496050	666.355590	908.476750	-273.417110	887.239750	45.470460	190.942500	894.994080	56.396850	80.591930	189.680440	45.731450	-142.074720	217.058440	49.665000	-41.009120	696.491460	1581.926760	108.659430	708.278020	1584.073610	-30.144740	692.604550	1758.599240	44.261570	
341	5.667000	612.924190	1053.370850	143.007370	607.164370	1035.226810	-116.811360	412.420780	1042.734500	30.917320	666.418270	749.761170	194.078410	736.929380	711.380430	96.634720	698.015750	632.012020	182.918370	503.994600	743.249570	-174.244230	595.770870	688.672490	-125.741870	487.535580	634.911870	-163.787170	686.264710	456.512880	176.227970	758.165710	427.262150	114.120930	709.161560	371.829350	182.159590	391.903140	450.710480	-169.402390	396.186400	378.781190	-120.439490	347.971830	431.638460	-172.087710	645.171140	68.754090	101.605660	788.366880	80.731810	68.635380	780.063840	65.112690	175.983060	932.695980	59.250850	111.659200	73.719310	239.117950	-75.492730	189.530320	119.660170	-45.317660	162.604550	111.278420	-139.921630	239.824070	37.471030	-65.093670	638.187680	1354.345340	27.121800	524.488950	1435.632570	232.160920	578.943420	1468.749390	-180.472630	510.269780	1235.357180	273.984560	603.233700	1233.920780	-219.453080	454.653140	1135.989990	296.585660	561.522520	1138.728640	-268.266140	588.007810	901.544310	295.300810	543.214840	887.391360	342.460750	690.380000	926.402950	-207.858200	656.807740	910.743040	-274.771550	868.911990	42.549940	190.971510	876.965520	52.950620	80.820280	180.487950	52.609750	-142.954130	208.154430	55.508860	-42.195410	697.383360	1584.521850	112.622730	709.341060	1586.302610	-26.558060	693.411250	1760.680540	48.228690	
342	5.683000	615.935420	1055.901610	146.091170	608.499020	1037.313960	-113.405360	413.986390	1044.485230	34.253580	664.336490	749.618100	197.176970	734.854430	710.726990	100.322120	694.925110	631.420170	185.557690	516.782470	741.826480	-173.124190	613.117070	691.009280	-125.754300	506.960210	632.819030	-164.424560	677.391910	456.149900	177.865860	749.968320	425.547850	116.108310	698.469480	371.293730	182.885440	414.815550	450.082490	-169.687930	414.926450	378.295230	-117.960460	369.746250	434.164670	-172.399440	626.895690	69.180180	101.819280	770.580260	79.734630	68.770280	761.707090	64.586780	176.278920	914.337830	55.460060	111.900540	91.083680	262.325710	-73.544760	192.371350	130.017430	-45.719280	164.326800	124.855670	-139.936330	232.065190	35.752020	-67.567880	639.316960	1356.849120	30.057920	527.415470	1437.960450	236.001130	578.136780	1471.624760	-177.401310	515.756900	1237.007320	278.516360	600.022160	1236.961670	-217.772420	460.841640	1137.889770	301.565920	554.860050	1142.639040	-264.731960	594.214170	903.084050	298.889070	549.783200	889.266110	345.949160	682.790340	927.089780	-209.265560	648.124080	913.099980	-275.071690	850.066890	42.549830	191.469210	858.363530	50.615130	80.907690	176.274900	61.776580	-144.060870	204.409650	63.213920	-43.751470	698.190730	1586.454100	115.361100	709.866700	1589.403810	-22.917410	694.566040	1763.246700	52.158380	
343	5.700000	616.931030	1058.939700	149.077160	609.454960	1039.398440	-110.234200	414.915440	1046.685300	37.538760	661.611880	750.097110	199.365970	730.698970	709.721440	103.107640	688.177060	631.311710	188.593310	529.574160	741.025390	-171.597110	627.840150	694.233460	-126.070050	524.124150	631.549800	-162.717910	666.371090	456.524540	178.721590	743.340640	424.923000	117.553860	685.396120	370.463380	182.694640	438.049410	450.676060	-168.634900	437.124600	380.781560	-117.731500	392.795260	437.519320	-172.192550	608.236570	69.342810	101.667760	752.266720	79.020490	68.639860	743.021910	64.433980	176.222290	895.658940	53.112670	111.925290	111.908120	283.145360	-70.634580	199.827740	140.574170	-46.074830	171.458040	139.049500	-139.919680	230.685750	36.414900	-70.521910	640.574340	1359.751100	31.249900	530.422490	1440.671630	240.237840	577.845460	1474.739870	-173.962330	519.151000	1239.424190	282.740690	597.280270	1240.499880	-215.815930	467.229980	1140.101070	306.428220	551.630800	1146.208130	-263.198240	601.427730	905.160280	300.979400	558.749080	891.987980	349.942720	674.950440	927.847050	-210.804700	638.809630	915.121580	-275.898160	831.756350	41.549590	190.623020	839.418090	49.060840	80.885840	178.493240	72.856280	-145.301330	207.236970	72.345350	-45.472350	699.012700	1588.610470	118.811940	710.949400	1591.076660	-19.937370	694.905700	1766.202390	55.400250	
344	5.717000	618.575200	1061.220340	152.561400	609.347720	1041.700440	-107.855770	415.332280	1049.338990	40.646510	654.904110	750.281310	201.995960	725.746340	708.628480	105.242100	680.723880	631.220090	190.066830	542.008910	741.190310	-169.651110	642.887510	698.892580	-124.511630	539.966860	631.329350	-161.204480	656.042600	456.725190	178.640350	728.173100	423.468900	119.441610	671.496830	370.835630	183.597500	462.592010	452.452120	-167.477660	457.255280	382.689480	-114.342990	416.145630	442.001860	-171.253300	589.382690	69.368660	101.343340	733.552190	78.479460	68.345980	724.159300	64.347850	176.020810	876.840700	51.775130	111.864410	133.841380	299.996770	-66.851700	212.060820	150.716540	-46.306520	183.832320	152.792630	-139.633560	237.801300	40.530460	-73.559590	640.291380	1362.863890	32.844220	533.377140	1442.953250	242.393840	575.836610	1478.095460	-172.228260	526.123290	1242.496340	286.750060	593.289980	1243.240840	-214.872590	473.698060	1142.598390	311.135250	547.138670	1150.086790	-261.084260	609.199650	908.367740	304.030030	567.449710	894.931270	353.934020	667.462340	929.374760	-212.015810	629.773740	916.839660	-275.645230	814.073300	41.192040	190.473680	820.364320	48.084410	80.845260	188.178920	85.031680	-146.607240	217.463440	82.137520	-47.230030	700.299190	1591.825680	121.932450	710.632260	1595.681520	-17.395780	695.809390	1769.070430	58.439470	
